<?xml version="1.0" encoding="UTF-8"?>
<svg id="flower"  xmlns="http://www.w3.org/2000/svg" xmlns:xlink="http://www.w3.org/1999/xlink" viewBox="0 0 254.53 271.57">
  <defs>
    <style>
      .cls-1 {
        fill: url(#radial-gradient);
        stroke-width: 0px;
      }
      #flower{
         
         transition: all 0.5s ease;
          transform-origin: center;
      }
      #flower:hover {
        transform: rotate(180deg);
      }
      
    </style>
     <script>
      const vectorGraphic = document.querySelector('#flower');

      function logThisId() {
          console.log(this);
          console.log('YOoo HOoo', this.id);
      }

      vectorGraphic.addEventListener('click', logThisId);
    </script>
    <radialGradient id="radial-gradient" cx="129.9" cy="133.08" fx="129.9" fy="133.08" r="131.75" gradientUnits="userSpaceOnUse">
      <stop offset="0" stop-color="#f49ac1"/>
      <stop offset=".18" stop-color="#d67ab2"/>
      <stop offset=".38" stop-color="#be60a6"/>
      <stop offset=".58" stop-color="#ac4d9d"/>
      <stop offset=".78" stop-color="#a24198"/>
      <stop offset="1" stop-color="#9f3e97"/>
    </radialGradient>
  </defs>
  <path class="cls-1" d="m147.8,162.98c76.27,101,31,124.96-9.6,5.08,4.53,138.96-38.98,137.36-24.21-.89-49.33,116.55-92.72,89.33-9.2-5.78-118.08,73.41-138.45,34.92-11.33-21.42-125.61,15.55-123.72-35.63.4-10.86C-28.76,63.56-5.61,26.68,106.73,108.59c-76.27-101-31-124.96,9.6-5.08-4.53-138.96,38.98-137.36,24.21.89,49.33-116.55,92.72-89.33,9.2,5.78,118.08-73.41,138.45-34.92,11.33,21.42,125.61-15.55,123.72,35.63-.4,10.86,122.61,65.56,99.46,102.44-12.88,20.52Z"/>
</svg>