<?xml version="1.0" encoding="UTF-8"?>
<svg id="cloud-nine"  xmlns="http://www.w3.org/2000/svg" viewBox="0 0 193 193">
  <defs>
    <style>
      #nine {
        fill: #6fccdd;
      }

      #nine, .cls-2 {
        stroke-width: 0px;
      }
       #nine{
         
         transition: all 0.5s ease;
          transform-origin: center;
      }
      #cloud-nine:hover #nine{
        transform:rotate(180deg);
      }
      .cls-2:hover{
        fill:white
      }

     .text {
        font-family: MyriadPro-Regular, 'Myriad Pro';
        font-size: 12px;
      }

      .text {
        fill: #fff;
      }
    </style>
    <script>
      const vectorGraphic = document.querySelector('#cloud-nine');

      function logThisId() {
          console.log(this);
          console.log('Suuiii', this.id);
      }

      vectorGraphic.addEventListener('click', logThisId);
    </script>
  </defs>
  <g id="background">
    <circle class="cls-2" cx="96.5" cy="96.5" r="96"/>
    <path class="cls-2" d="m96.5,1c52.66,0,95.5,42.84,95.5,95.5s-42.84,95.5-95.5,95.5S1,149.16,1,96.5,43.84,1,96.5,1m0-1C43.2,0,0,43.2,0,96.5s43.2,96.5,96.5,96.5,96.5-43.2,96.5-96.5S149.8,0,96.5,0h0Z"/>
  </g>
  <text class="text" transform="translate(45.98 31.18) rotate(-35.35)"><tspan x="0" y="0">C</tspan></text>
  <text class="text" transform="translate(51.59 27.27) rotate(-32.04)"><tspan x="0" y="0">l</tspan></text>
  <text class="text" transform="translate(53.88 25.77) rotate(-28.84)"><tspan x="0" y="0">o</tspan></text>
  <text class="text" transform="translate(59.51 22.66) rotate(-24.35)"><tspan x="0" y="0">u</tspan></text>
  <text class="text" transform="translate(65.39 19.99) rotate(-19.78)"><tspan x="0" y="0">d</tspan></text>
  <text class="text" transform="translate(71.69 17.79) rotate(-16.59)"><tspan x="0" y="0"> </tspan></text>
  <text class="text" transform="translate(74.01 17.04) rotate(-13.62)"><tspan x="0" y="0">9</tspan></text>
  <text class="text" transform="translate(79.89 15.66) rotate(-10.67)"><tspan x="0" y="0"> </tspan></text>
  <text class="text" transform="translate(82.33 15.2) rotate(-8.94)"><tspan x="0" y="0"> </tspan></text>
  <text class="text" transform="translate(84.8 14.81) rotate(-7.2)"><tspan x="0" y="0"> </tspan></text>
  <text class="text" transform="translate(87.25 14.5) rotate(-5.48)"><tspan x="0" y="0"> </tspan></text>
  <text class="text" transform="translate(89.74 14.26) rotate(-3.76)"><tspan x="0" y="0"> </tspan></text>
  <text class="text" transform="translate(92.21 14.1) rotate(-2.06)"><tspan x="0" y="0"> </tspan></text>
  <text class="text" transform="translate(94.69 14.02) rotate(-.93)"><tspan x="0" y="0"> </tspan></text>
  <text class="text" transform="translate(97.18 13.99) rotate(1.33)"><tspan x="0" y="0"> </tspan></text>
  <text class="text" transform="translate(99.67 14.05) rotate(3.04)"><tspan x="0" y="0"> </tspan></text>
  <text class="text" transform="translate(102.14 14.18) rotate(4.74)"><tspan x="0" y="0"> </tspan></text>
  <text class="text" transform="translate(104.61 14.38) rotate(6.45)"><tspan x="0" y="0"> </tspan></text>
  <text class="text" transform="translate(107.08 14.66) rotate(8.18)"><tspan x="0" y="0"> </tspan></text>
  <text class="six" transform="translate(111.97 15.39) rotate(12.8)"><tspan x="0" y="0">S</tspan></text>
  <text class="six" transform="translate(117.61 16.71) rotate(15.77)"><tspan x="0" y="0">i</tspan></text>
  <text class="six" transform="translate(120.24 17.42) rotate(18.63)"><tspan x="0" y="0">x</tspan></text>
  <text class="text" transform="translate(127.7 20.09) rotate(23.12)"><tspan x="0" y="0"> </tspan></text>
  <text class="text" transform="translate(130.01 21.08) rotate(24.88)"><tspan x="0" y="0"> </tspan></text>
  <text class="text" transform="translate(132.25 22.12) rotate(26.6)"><tspan x="0" y="0"> </tspan></text>
  <text class="text" transform="translate(134.46 23.22) rotate(28.32)"><tspan x="0" y="0"> </tspan></text>
  <text class="text" transform="translate(136.65 24.4) rotate(30.05)"><tspan x="0" y="0"> </tspan></text>
  <text class="text" transform="translate(138.81 25.65) rotate(31.78)"><tspan x="0" y="0"> </tspan></text>
  <text class="text" transform="translate(140.92 26.96) rotate(33.5)"><tspan x="0" y="0"> </tspan></text>
  <text class="text" transform="translate(142.99 28.33) rotate(35.23)"><tspan x="0" y="0"> </tspan></text>
  <text class="text" transform="translate(145.02 29.76) rotate(36.94)"><tspan x="0" y="0"> </tspan></text>
  <text class="text" transform="translate(147 31.24) rotate(38.65)"><tspan x="0" y="0"> </tspan></text>
  <text class="text" transform="translate(148.96 32.81) rotate(40.39)"><tspan x="0" y="0"> </tspan></text>
  <text class="text" transform="translate(150.84 34.41) rotate(42.1)"><tspan x="0" y="0"> </tspan></text>
  <text class="text" transform="translate(152.68 36.07) rotate(43.8)"><tspan x="0" y="0"> </tspan></text>
  <text class="text" transform="translate(154.47 37.78) rotate(45.51)"><tspan x="0" y="0"> </tspan></text>
  <text class="text" transform="translate(156.22 39.57) rotate(47.24)"><tspan x="0" y="0"> </tspan></text>
  <text class="text" transform="translate(157.9 41.39) rotate(48.95)"><tspan x="0" y="0"> </tspan></text>
  <text class="text" transform="translate(159.53 43.25) rotate(50.66)"><tspan x="0" y="0"> </tspan></text>
  <text class="text" transform="translate(161.12 45.19) rotate(52.39)"><tspan x="0" y="0"> </tspan></text>
  <text class="text" transform="translate(162.64 47.16) rotate(54.11)"><tspan x="0" y="0"> </tspan></text>
  <text class="text" transform="translate(164.09 49.17) rotate(55.83)"><tspan x="0" y="0"> </tspan></text>
  <text class="text" transform="translate(165.49 51.22) rotate(57.55)"><tspan x="0" y="0"> </tspan></text>
  <text class="text" transform="translate(166.82 53.32) rotate(59.28)"><tspan x="0" y="0"> </tspan></text>
  <text class="text" transform="translate(168.08 55.44) rotate(60.99)"><tspan x="0" y="0"> </tspan></text>
  <text class="text" transform="translate(169.33 57.54) rotate(64.23)"><tspan x="0" y="0">C</tspan></text>
  <text class="text" transform="translate(172.25 63.74) rotate(67.58)"><tspan x="0" y="0">l</tspan></text>
  <text class="text" transform="translate(173.33 66.21) rotate(70.77)"><tspan x="0" y="0">o</tspan></text>
  <text class="text" transform="translate(175.47 72.31) rotate(75.3)"><tspan x="0" y="0">u</tspan></text>
  <text class="text" transform="translate(177.11 78.53) rotate(79.85)"><tspan x="0" y="0">d</tspan></text>
  <text class="text" transform="translate(178.23 85.12) rotate(83.03)"><tspan x="0" y="0"> </tspan></text>
  <text class="text" transform="translate(178.57 87.52) rotate(85.96)"><tspan x="0" y="0">9</tspan></text>
  <text class="text" transform="translate(178.96 93.56) rotate(88.87)"><tspan x="0" y="0"> </tspan></text>
  <text class="text" transform="translate(179.02 96.03) rotate(90.93)"><tspan x="0" y="0"> </tspan></text>
  <text class="text" transform="translate(178.98 98.55) rotate(92.27)"><tspan x="0" y="0"> </tspan></text>
  <text class="text" transform="translate(178.89 101.02) rotate(93.97)"><tspan x="0" y="0"> </tspan></text>
  <text class="text" transform="translate(178.72 103.51) rotate(95.69)"><tspan x="0" y="0"> </tspan></text>
  <text class="text" transform="translate(178.47 105.97) rotate(97.4)"><tspan x="0" y="0"> </tspan></text>
  <text class="text" transform="translate(178.15 108.45) rotate(99.14)"><tspan x="0" y="0"> </tspan></text>
  <text class="text" transform="translate(177.76 110.9) rotate(100.87)"><tspan x="0" y="0"> </tspan></text>
  <text class="text" transform="translate(177.29 113.33) rotate(102.6)"><tspan x="0" y="0"> </tspan></text>
  <text class="text" transform="translate(176.75 115.76) rotate(104.34)"><tspan x="0" y="0"> </tspan></text>
  <text class="text" transform="translate(176.14 118.17) rotate(106.08)"><tspan x="0" y="0"> </tspan></text>
  <text class="text" transform="translate(175.45 120.55) rotate(107.81)"><tspan x="0" y="0"> </tspan></text>
  <text class="text" transform="translate(174.7 122.9) rotate(109.54)"><tspan x="0" y="0"> </tspan></text>
  <text class="text" transform="translate(173.87 125.24) rotate(111.28)"><tspan x="0" y="0"> </tspan></text>
  <text class="six" transform="translate(172.05 129.83) rotate(115.9)"><tspan x="0" y="0">S</tspan></text>
  <text class="six" transform="translate(169.48 135.03) rotate(118.86)"><tspan x="0" y="0">i</tspan></text>
  <text class="six" transform="translate(168.19 137.45) rotate(121.72)"><tspan x="0" y="0">x</tspan></text>
  <text class="text" transform="translate(163.89 144.11) rotate(126.17)"><tspan x="0" y="0"> </tspan></text>
  <text class="text" transform="translate(162.43 146.11) rotate(127.88)"><tspan x="0" y="0"> </tspan></text>
  <text class="text" transform="translate(160.91 148.07) rotate(129.6)"><tspan x="0" y="0"> </tspan></text>
  <text class="text" transform="translate(159.32 150) rotate(131.33)"><tspan x="0" y="0"> </tspan></text>
  <text class="text" transform="translate(157.68 151.86) rotate(133.04)"><tspan x="0" y="0"> </tspan></text>
  <text class="text" transform="translate(155.99 153.67) rotate(134.74)"><tspan x="0" y="0"> </tspan></text>
  <text class="text" transform="translate(154.25 155.43) rotate(136.45)"><tspan x="0" y="0"> </tspan></text>
  <text class="text" transform="translate(152.44 157.15) rotate(138.18)"><tspan x="0" y="0"> </tspan></text>
  <text class="text" transform="translate(150.59 158.81) rotate(139.89)"><tspan x="0" y="0"> </tspan></text>
  <text class="text" transform="translate(148.7 160.4) rotate(141.6)"><tspan x="0" y="0"> </tspan></text>
  <text class="text" transform="translate(146.73 161.96) rotate(143.34)"><tspan x="0" y="0"> </tspan></text>
  <text class="text" transform="translate(144.74 163.44) rotate(145.05)"><tspan x="0" y="0"> </tspan></text>
  <text class="text" transform="translate(142.71 164.87) rotate(146.78)"><tspan x="0" y="0"> </tspan></text>
  <text class="text" transform="translate(140.63 166.23) rotate(148.5)"><tspan x="0" y="0"> </tspan></text>
  <text class="text" transform="translate(138.53 167.52) rotate(150.21)"><tspan x="0" y="0"> </tspan></text>
  <text class="text" transform="translate(136.37 168.75) rotate(151.94)"><tspan x="0" y="0"> </tspan></text>
  <text class="text" transform="translate(134.24 169.97) rotate(155.19)"><tspan x="0" y="0">C</tspan></text>
  <text class="text" transform="translate(128.01 172.78) rotate(158.52)"><tspan x="0" y="0">l</tspan></text>
  <text class="text" transform="translate(125.52 173.82) rotate(161.72)"><tspan x="0" y="0">o</tspan></text>
  <text class="text" transform="translate(119.4 175.85) rotate(166.24)"><tspan x="0" y="0">u</tspan></text>
  <text class="text" transform="translate(113.14 177.39) rotate(170.79)"><tspan x="0" y="0">d</tspan></text>
  <text class="text" transform="translate(106.56 178.4) rotate(173.95)"><tspan x="0" y="0"> </tspan></text>
  <text class="text" transform="translate(104.11 178.71) rotate(176.89)"><tspan x="0" y="0">9</tspan></text>
  <text class="text" transform="translate(98.07 178.98) rotate(179.07)"><tspan x="0" y="0"> </tspan></text>
  <text class="text" transform="translate(95.58 179) rotate(-178.5)"><tspan x="0" y="0"> </tspan></text>
  <text class="text" transform="translate(93.1 178.94) rotate(-176.8)"><tspan x="0" y="0"> </tspan></text>
  <text class="text" transform="translate(90.63 178.8) rotate(-175.11)"><tspan x="0" y="0"> </tspan></text>
  <text class="text" transform="translate(88.16 178.59) rotate(-173.39)"><tspan x="0" y="0"> </tspan></text>
  <text class="text" transform="translate(85.68 178.31) rotate(-171.65)"><tspan x="0" y="0"> </tspan></text>
  <text class="text" transform="translate(83.21 177.95) rotate(-169.92)"><tspan x="0" y="0"> </tspan></text>
  <text class="text" transform="translate(80.77 177.51) rotate(-168.19)"><tspan x="0" y="0"> </tspan></text>
  <text class="text" transform="translate(78.36 177.01) rotate(-166.46)"><tspan x="0" y="0"> </tspan></text>
  <text class="text" transform="translate(75.94 176.43) rotate(-164.72)"><tspan x="0" y="0"> </tspan></text>
  <text class="text" transform="translate(73.55 175.78) rotate(-162.99)"><tspan x="0" y="0"> </tspan></text>
  <text class="text" transform="translate(71.15 175.04) rotate(-161.24)"><tspan x="0" y="0"> </tspan></text>
  <text class="text" transform="translate(68.81 174.25) rotate(-159.5)"><tspan x="0" y="0"> </tspan></text>
  <text class="text" transform="translate(66.49 173.38) rotate(-157.78)"><tspan x="0" y="0"> </tspan></text>
  <text class="text" transform="translate(64.2 172.45) rotate(-156.04)"><tspan x="0" y="0"> </tspan></text>
  <text class="text" transform="translate(61.91 171.43) rotate(-154.29)"><tspan x="0" y="0"> </tspan></text>
  <text class="text" transform="translate(59.68 170.36) rotate(-152.57)"><tspan x="0" y="0"> </tspan></text>
  <text class="six" transform="translate(57.48 169.27) rotate(-149.69)"><tspan x="0" y="0">S</tspan></text>
  <text class="six" transform="translate(52.48 166.3) rotate(-146.73)"><tspan x="0" y="0">i</tspan></text>
  <text class="six" transform="translate(50.21 164.85) rotate(-143.92)"><tspan x="0" y="0">x</tspan></text>
  <text class="text" transform="translate(45.8 161.6) rotate(-141.17)"><tspan x="0" y="0"> </tspan></text>
  <text class="text" transform="translate(43.88 160.05) rotate(-139.46)"><tspan x="0" y="0"> </tspan></text>
  <text class="text" transform="translate(41.97 158.42) rotate(-137.73)"><tspan x="0" y="0"> </tspan></text>
  <text class="text" transform="translate(40.14 156.76) rotate(-136.03)"><tspan x="0" y="0"> </tspan></text>
  <text class="text" transform="translate(38.36 155.04) rotate(-134.32)"><tspan x="0" y="0"> </tspan></text>
  <text class="text" transform="translate(36.63 153.27) rotate(-132.61)"><tspan x="0" y="0"> </tspan></text>
  <text class="text" transform="translate(34.93 151.43) rotate(-130.88)"><tspan x="0" y="0"> </tspan></text>
  <text class="text" transform="translate(33.31 149.56) rotate(-129.17)"><tspan x="0" y="0"> </tspan></text>
  <text class="text" transform="translate(31.74 147.64) rotate(-127.46)"><tspan x="0" y="0"> </tspan></text>
  <text class="text" transform="translate(30.23 145.67) rotate(-125.74)"><tspan x="0" y="0"> </tspan></text>
  <text class="text" transform="translate(28.78 143.66) rotate(-124.02)"><tspan x="0" y="0"> </tspan></text>
  <text class="text" transform="translate(27.39 141.6) rotate(-122.3)"><tspan x="0" y="0"> </tspan></text>
  <text class="text" transform="translate(26.06 139.49) rotate(-120.57)"><tspan x="0" y="0"> </tspan></text>
  <text class="text" transform="translate(24.8 137.35) rotate(-118.84)"><tspan x="0" y="0"> </tspan></text>
  <text class="text" transform="translate(23.56 135.24) rotate(-115.6)"><tspan x="0" y="0">C</tspan></text>
  <text class="text" transform="translate(20.66 129.05) rotate(-112.27)"><tspan x="0" y="0">l</tspan></text>
  <text class="text" transform="translate(19.57 126.55) rotate(-109.05)"><tspan x="0" y="0">o</tspan></text>
  <text class="text" transform="translate(17.47 120.47) rotate(-104.54)"><tspan x="0" y="0">u</tspan></text>
  <text class="text" transform="translate(15.83 114.21) rotate(-99.97)"><tspan x="0" y="0">d</tspan></text>
  <text class="text" transform="translate(14.74 107.66) rotate(-96.81)"><tspan x="0" y="0"> </tspan></text>
  <text class="text" transform="translate(14.4 105.23) rotate(-93.88)"><tspan x="0" y="0">9</tspan></text>
  <text class="text" transform="translate(14.03 99.2) rotate(-90.98)"><tspan x="0" y="0"> </tspan></text>
  <text class="text" transform="translate(13.99 96.71) rotate(-89.07)"><tspan x="0" y="0"> </tspan></text>
  <text class="text" transform="translate(14.02 94.22) rotate(-87.57)"><tspan x="0" y="0"> </tspan></text>
  <text class="text" transform="translate(14.12 91.75) rotate(-85.88)"><tspan x="0" y="0"> </tspan></text>
  <text class="text" transform="translate(14.3 89.27) rotate(-84.16)"><tspan x="0" y="0"> </tspan></text>
  <text class="text" transform="translate(14.55 86.8) rotate(-82.44)"><tspan x="0" y="0"> </tspan></text>
  <text class="text" transform="translate(14.88 84.33) rotate(-80.71)"><tspan x="0" y="0"> </tspan></text>
  <text class="text" transform="translate(15.28 81.88) rotate(-78.97)"><tspan x="0" y="0"> </tspan></text>
  <text class="text" transform="translate(15.75 79.45) rotate(-77.25)"><tspan x="0" y="0"> </tspan></text>
  <text class="text" transform="translate(16.3 77.02) rotate(-75.5)"><tspan x="0" y="0"> </tspan></text>
  <text class="text" transform="translate(16.92 74.62) rotate(-73.77)"><tspan x="0" y="0"> </tspan></text>
  <text class="text" transform="translate(17.61 72.24) rotate(-72.03)"><tspan x="0" y="0"> </tspan></text>
  <text class="six" transform="translate(18.33 69.89) rotate(-69.14)"><tspan x="0" y="0">S</tspan></text>
  <text class="six" transform="translate(20.44 64.46) rotate(-66.15)"><tspan x="0" y="0">i</tspan></text>
  <text class="six" transform="translate(21.5 61.98) rotate(-63.31)"><tspan x="0" y="0">x</tspan></text>
  <text class="text" transform="translate(23.98 57.11) rotate(-60.55)"><tspan x="0" y="0"> </tspan></text>
  <text class="text" transform="translate(25.2 54.94) rotate(-58.82)"><tspan x="0" y="0"> </tspan></text>
  <text class="text" transform="translate(26.48 52.84) rotate(-57.12)"><tspan x="0" y="0"> </tspan></text>
  <text class="text" transform="translate(27.82 50.75) rotate(-55.4)"><tspan x="0" y="0"> </tspan></text>
  <text class="text" transform="translate(29.25 48.69) rotate(-53.66)"><tspan x="0" y="0"> </tspan></text>
  <text class="text" transform="translate(30.72 46.69) rotate(-51.94)"><tspan x="0" y="0"> </tspan></text>
  <text class="text" transform="translate(32.24 44.74) rotate(-50.23)"><tspan x="0" y="0"> </tspan></text>
  <text class="text" transform="translate(33.83 42.83) rotate(-48.52)"><tspan x="0" y="0"> </tspan></text>
  <text class="text" transform="translate(35.48 40.96) rotate(-46.79)"><tspan x="0" y="0"> </tspan></text>
  <text class="text" transform="translate(37.18 39.15) rotate(-45.09)"><tspan x="0" y="0"> </tspan></text>
  <path id="nine" d="m115,74c-3-12-9-13-9-13-7-7-14-3-14-3-7,0-10,6-10,6-5,3-5,9.43-5,9.43,0,0-3,4.57,0,11.57s7.24,8.63,7.24,8.63c2.24,3.63,6.76,2.37,6.76,2.37,5,3,8.04-1.96,8.04-1.96,3.04,1.04,5.37-3.43,5.37-3.43,0,0-2.41,13.39-4.41,14.39s-6,7-6,7l-5,4-7.05,4.83s-6.95,2.17.78,1.78,13.16-5.65,13.16-5.65c2.89-.04,7.11-4.96,7.11-4.96,4-1,6-7,6-7,4-1,5-10,5-10,0,0,4-9,1-21Zm-10.06,7.71s-.8,4.26-4.37,4.78c0,0-1.63,2.49-6.1,1.5,0,0-3.13,1.41-6.8-2.79,0,0-3.29-1.12-3.48-6.16,0,0-1.11-3.86.35-5.45,0,0,.31-3.43,3.39-5.01,0,0,2.35-2.58,6.71-2.58,0,0,2.38-.85,3.87.57,0,0,1.4-.68,1.94.87,0,0,2.39-.68,1.97,1.43,0,0,1.25-.23.92.94,0,0,3.18,1.57,2.42,4.87,0,0,2.13,2.71-.81,7.01Z"/>
</svg>