<?xml version="1.0" encoding="UTF-8"?>
<svg id="Layer_1" data-name="Layer 1" xmlns="http://www.w3.org/2000/svg" viewBox="0 0 193 193">
  <defs>
    <style>
      .cls-1 {
        font-size: 10.32px;
      }

      .cls-1, .cls-2 {
        fill: #2e368f;
      }

      .cls-1, .cls-2, .cls-3 {
        font-family: MyriadPro-Regular, 'Myriad Pro';
      }

      .cls-4, .cls-5, .cls-6, .cls-7 {
        stroke-width: 0px;
      }

      .cls-2 {
        font-size: 6.55px;
      }

      .cls-5 {
        fill: #f79420;
      }

      .cls-6 {
        fill: #70c2cd;
      }

      .cls-7 {
        fill: #ed2024;
      }

      .cls-3 {
        fill: #fff;
        font-size: 12px;
      }
    </style>
  </defs>
  <g>
    <circle class="cls-4" cx="96.5" cy="96.5" r="96"/>
    <path class="cls-4" d="m96.5,1c52.66,0,95.5,42.84,95.5,95.5s-42.84,95.5-95.5,95.5S1,149.16,1,96.5,43.84,1,96.5,1m0-1C43.2,0,0,43.2,0,96.5s43.2,96.5,96.5,96.5,96.5-43.2,96.5-96.5S149.8,0,96.5,0h0Z"/>
  </g>
  <text class="cls-3" transform="translate(43.69 33.05) rotate(-37.76)"><tspan x="0" y="0">S</tspan></text>
  <text class="cls-3" transform="translate(48.28 29.49) rotate(-33.78)"><tspan x="0" y="0">a</tspan></text>
  <text class="cls-3" transform="translate(52.91 26.39) rotate(-29.92)"><tspan x="0" y="0">v</tspan></text>
  <text class="cls-3" transform="translate(57.67 23.63) rotate(-26.01)"><tspan x="0" y="0">e</tspan></text>
  <text class="cls-3" transform="translate(63.02 21.07) rotate(-23.08)"><tspan x="0" y="0"> </tspan></text>
  <text class="cls-3" transform="translate(64.76 20.15) rotate(-19.05)"><tspan x="0" y="0">W</tspan></text>
  <text class="cls-3" transform="translate(73.85 17.1) rotate(-13.87)"><tspan x="0" y="0">a</tspan></text>
  <text class="cls-3" transform="translate(79.31 15.77) rotate(-10.58)"><tspan x="0" y="0">t</tspan></text>
  <text class="cls-3" transform="translate(83.01 15.04) rotate(-7.24)"><tspan x="0" y="0">e</tspan></text>
  <text class="cls-3" transform="translate(88.88 14.32) rotate(-3.88)"><tspan x="0" y="0">r</tspan></text>
  <text class="cls-3" transform="translate(92.7 14.08) rotate(-1.72)"><tspan x="0" y="0"> </tspan></text>
  <text class="cls-3" transform="translate(95.13 13.92) rotate(1.79)"><tspan x="0" y="0">D</tspan></text>
  <text class="cls-3" transform="translate(102.98 14.23) rotate(5.8)"><tspan x="0" y="0">r</tspan></text>
  <text class="cls-3" transform="translate(106.84 14.63) rotate(8.1)"><tspan x="0" y="0">i</tspan></text>
  <text class="cls-3" transform="translate(109.52 14.95) rotate(11.32)"><tspan x="0" y="0">n</tspan></text>
  <text class="cls-3" transform="translate(115.92 16.25) rotate(15.52)"><tspan x="0" y="0">k</tspan></text>
  <text class="cls-3" transform="translate(121.24 17.76) rotate(18.32)"><tspan x="0" y="0"> </tspan></text>
  <text class="cls-3" transform="translate(123.58 18.48) rotate(21.41)"><tspan x="0" y="0">B</tspan></text>
  <text class="cls-3" transform="translate(129.53 20.82) rotate(25.71)"><tspan x="0" y="0">e</tspan></text>
  <text class="cls-3" transform="translate(134.82 23.36) rotate(29.79)"><tspan x="0" y="0">e</tspan></text>
  <text class="cls-3" transform="translate(139.92 26.31) rotate(33.16)"><tspan x="0" y="0">r</tspan></text>
  <text class="cls-3" transform="translate(143.15 28.43) rotate(35.35)"><tspan x="0" y="0"> </tspan></text>
  <text class="cls-3" transform="translate(145.17 29.87) rotate(37.07)"><tspan x="0" y="0"> </tspan></text>
  <text class="cls-3" transform="translate(147.15 31.36) rotate(38.78)"><tspan x="0" y="0"> </tspan></text>
  <text class="cls-3" transform="translate(149.08 32.91) rotate(40.49)"><tspan x="0" y="0"> </tspan></text>
  <text class="cls-3" transform="translate(150.98 34.54) rotate(42.22)"><tspan x="0" y="0"> </tspan></text>
  <text class="cls-3" transform="translate(152.82 36.2) rotate(43.93)"><tspan x="0" y="0"> </tspan></text>
  <text class="cls-3" transform="translate(154.6 37.91) rotate(45.64)"><tspan x="0" y="0"> </tspan></text>
  <text class="cls-3" transform="translate(156.35 39.71) rotate(47.37)"><tspan x="0" y="0"> </tspan></text>
  <text class="cls-3" transform="translate(158.03 41.53) rotate(49.08)"><tspan x="0" y="0"> </tspan></text>
  <text class="cls-3" transform="translate(159.65 43.4) rotate(50.79)"><tspan x="0" y="0"> </tspan></text>
  <text class="cls-3" transform="translate(161.22 45.31) rotate(52.5)"><tspan x="0" y="0"> </tspan></text>
  <text class="cls-3" transform="translate(162.73 47.28) rotate(54.22)"><tspan x="0" y="0"> </tspan></text>
  <text class="cls-3" transform="translate(164.2 49.32) rotate(55.96)"><tspan x="0" y="0"> </tspan></text>
  <text class="cls-3" transform="translate(165.57 51.35) rotate(57.66)"><tspan x="0" y="0"> </tspan></text>
  <text class="cls-3" transform="translate(166.9 53.45) rotate(59.39)"><tspan x="0" y="0"> </tspan></text>
  <text class="cls-3" transform="translate(168.17 55.6) rotate(61.12)"><tspan x="0" y="0"> </tspan></text>
  <text class="cls-3" transform="translate(169.38 57.78) rotate(62.86)"><tspan x="0" y="0"> </tspan></text>
  <text class="cls-3" transform="translate(170.51 59.98) rotate(64.58)"><tspan x="0" y="0"> </tspan></text>
  <text class="cls-3" transform="translate(171.57 62.21) rotate(66.31)"><tspan x="0" y="0"> </tspan></text>
  <text class="cls-3" transform="translate(172.58 64.51) rotate(68.06)"><tspan x="0" y="0"> </tspan></text>
  <text class="cls-3" transform="translate(173.5 66.79) rotate(69.78)"><tspan x="0" y="0"> </tspan></text>
  <text class="cls-3" transform="translate(174.36 69.13) rotate(71.53)"><tspan x="0" y="0"> </tspan></text>
  <text class="cls-3" transform="translate(175.15 71.48) rotate(73.26)"><tspan x="0" y="0"> </tspan></text>
  <text class="cls-3" transform="translate(175.9 73.81) rotate(76.15)"><tspan x="0" y="0">S</tspan></text>
  <text class="cls-3" transform="translate(177.29 79.46) rotate(80.17)"><tspan x="0" y="0">a</tspan></text>
  <text class="cls-3" transform="translate(178.25 84.93) rotate(84.02)"><tspan x="0" y="0">v</tspan></text>
  <text class="cls-3" transform="translate(178.83 90.42) rotate(87.9)"><tspan x="0" y="0">e</tspan></text>
  <text class="cls-3" transform="translate(179.01 96.33) rotate(90.93)"><tspan x="0" y="0"> </tspan></text>
  <text class="cls-3" transform="translate(179.09 98.74) rotate(94.55)"><tspan x="0" y="0">w</tspan></text>
  <text class="cls-3" transform="translate(178.35 107.33) rotate(99.48)"><tspan x="0" y="0">a</tspan></text>
  <text class="cls-3" transform="translate(177.4 112.88) rotate(102.78)"><tspan x="0" y="0">t</tspan></text>
  <text class="cls-3" transform="translate(176.6 116.56) rotate(106.12)"><tspan x="0" y="0">e</tspan></text>
  <text class="cls-3" transform="translate(174.94 122.21) rotate(109.51)"><tspan x="0" y="0">r</tspan></text>
  <text class="cls-3" transform="translate(173.63 125.86) rotate(111.74)"><tspan x="0" y="0"> </tspan></text>
  <text class="cls-3" transform="translate(172.82 128.15) rotate(115.33)"><tspan x="0" y="0">D</tspan></text>
  <text class="cls-3" transform="translate(169.4 135.21) rotate(119.38)"><tspan x="0" y="0">r</tspan></text>
  <text class="cls-3" transform="translate(167.48 138.59) rotate(121.69)"><tspan x="0" y="0">i</tspan></text>
  <text class="cls-3" transform="translate(166.11 140.92) rotate(124.9)"><tspan x="0" y="0">n</tspan></text>
  <text class="cls-3" transform="translate(162.38 146.24) rotate(129.04)"><tspan x="0" y="0">k</tspan></text>
  <text class="cls-3" transform="translate(158.87 150.52) rotate(131.8)"><tspan x="0" y="0"> </tspan></text>
  <text class="cls-3" transform="translate(157.28 152.38) rotate(134.85)"><tspan x="0" y="0">B</tspan></text>
  <text class="cls-3" transform="translate(152.76 156.91) rotate(139.1)"><tspan x="0" y="0">e</tspan></text>
  <text class="cls-3" transform="translate(148.32 160.77) rotate(143.17)"><tspan x="0" y="0">e</tspan></text>
  <text class="cls-3" transform="translate(143.59 164.28) rotate(146.52)"><tspan x="0" y="0">r</tspan></text>
  <text class="cls-3" transform="translate(140.37 166.4) rotate(148.72)"><tspan x="0" y="0"> </tspan></text>
  <text class="cls-3" transform="translate(138.24 167.69) rotate(150.45)"><tspan x="0" y="0"> </tspan></text>
  <text class="cls-3" transform="translate(136.1 168.91) rotate(152.16)"><tspan x="0" y="0"> </tspan></text>
  <text class="cls-3" transform="translate(133.89 170.07) rotate(153.9)"><tspan x="0" y="0"> </tspan></text>
  <text class="cls-3" transform="translate(131.67 171.16) rotate(155.63)"><tspan x="0" y="0"> </tspan></text>
  <text class="cls-3" transform="translate(129.41 172.19) rotate(157.36)"><tspan x="0" y="0"> </tspan></text>
  <text class="cls-3" transform="translate(127.12 173.14) rotate(159.1)"><tspan x="0" y="0"> </tspan></text>
  <text class="cls-3" transform="translate(124.79 174.03) rotate(160.84)"><tspan x="0" y="0"> </tspan></text>
  <text class="cls-3" transform="translate(122.46 174.84) rotate(162.57)"><tspan x="0" y="0"> </tspan></text>
  <text class="cls-3" transform="translate(120.06 175.6) rotate(164.32)"><tspan x="0" y="0"> </tspan></text>
  <text class="cls-3" transform="translate(117.67 176.27) rotate(166.06)"><tspan x="0" y="0"> </tspan></text>
  <text class="cls-3" transform="translate(115.28 176.86) rotate(167.79)"><tspan x="0" y="0"> </tspan></text>
  <text class="cls-3" transform="translate(112.83 177.39) rotate(169.54)"><tspan x="0" y="0"> </tspan></text>
  <text class="cls-3" transform="translate(110.42 177.84) rotate(171.24)"><tspan x="0" y="0"> </tspan></text>
  <text class="cls-3" transform="translate(107.95 178.22) rotate(172.98)"><tspan x="0" y="0"> </tspan></text>
  <text class="cls-3" transform="translate(105.49 178.53) rotate(174.7)"><tspan x="0" y="0"> </tspan></text>
  <text class="cls-3" transform="translate(103 178.76) rotate(176.42)"><tspan x="0" y="0"> </tspan></text>
  <text class="cls-3" transform="translate(100.53 178.91) rotate(178.12)"><tspan x="0" y="0"> </tspan></text>
  <text class="cls-3" transform="translate(98.04 178.98) rotate(179.07)"><tspan x="0" y="0"> </tspan></text>
  <text class="cls-3" transform="translate(95.58 179) rotate(-178.5)"><tspan x="0" y="0"> </tspan></text>
  <text class="cls-3" transform="translate(93.06 178.94) rotate(-176.78)"><tspan x="0" y="0"> </tspan></text>
  <text class="cls-3" transform="translate(90.6 178.8) rotate(-175.08)"><tspan x="0" y="0"> </tspan></text>
  <text class="cls-3" transform="translate(88.13 178.59) rotate(-173.36)"><tspan x="0" y="0"> </tspan></text>
  <text class="cls-3" transform="translate(85.64 178.3) rotate(-171.63)"><tspan x="0" y="0"> </tspan></text>
  <text class="cls-3" transform="translate(83.21 177.95) rotate(-169.92)"><tspan x="0" y="0"> </tspan></text>
  <text class="cls-3" transform="translate(80.74 177.51) rotate(-168.17)"><tspan x="0" y="0"> </tspan></text>
  <text class="cls-3" transform="translate(78.33 177) rotate(-166.44)"><tspan x="0" y="0"> </tspan></text>
  <text class="cls-3" transform="translate(75.91 176.42) rotate(-164.7)"><tspan x="0" y="0"> </tspan></text>
  <text class="cls-3" transform="translate(73.52 175.77) rotate(-162.97)"><tspan x="0" y="0"> </tspan></text>
  <text class="cls-3" transform="translate(71.12 175.03) rotate(-161.22)"><tspan x="0" y="0"> </tspan></text>
  <text class="cls-3" transform="translate(68.79 174.24) rotate(-159.49)"><tspan x="0" y="0"> </tspan></text>
  <text class="cls-3" transform="translate(66.46 173.37) rotate(-157.75)"><tspan x="0" y="0"> </tspan></text>
  <text class="cls-3" transform="translate(64.17 172.43) rotate(-156.02)"><tspan x="0" y="0"> </tspan></text>
  <text class="cls-3" transform="translate(61.88 171.42) rotate(-154.27)"><tspan x="0" y="0"> </tspan></text>
  <text class="cls-3" transform="translate(59.65 170.35) rotate(-152.55)"><tspan x="0" y="0"> </tspan></text>
  <text class="cls-3" transform="translate(57.44 169.2) rotate(-150.81)"><tspan x="0" y="0"> </tspan></text>
  <text class="cls-3" transform="translate(55.29 168) rotate(-149.11)"><tspan x="0" y="0"> </tspan></text>
  <text class="cls-3" transform="translate(53.16 166.72) rotate(-147.38)"><tspan x="0" y="0"> </tspan></text>
  <text class="cls-3" transform="translate(51.07 165.44) rotate(-144.52)"><tspan x="0" y="0">S</tspan></text>
  <text class="cls-3" transform="translate(46.33 162.06) rotate(-140.53)"><tspan x="0" y="0">a</tspan></text>
  <text class="cls-3" transform="translate(42.04 158.54) rotate(-136.71)"><tspan x="0" y="0">v</tspan></text>
  <text class="cls-3" transform="translate(38.02 154.77) rotate(-132.82)"><tspan x="0" y="0">e</tspan></text>
  <text class="cls-3" transform="translate(34.01 150.38) rotate(-129.92)"><tspan x="0" y="0"> </tspan></text>
  <text class="cls-3" transform="translate(32.38 148.61) rotate(-126.08)"><tspan x="0" y="0">w</tspan></text>
  <text class="cls-3" transform="translate(27.36 141.62) rotate(-121.18)"><tspan x="0" y="0">a</tspan></text>
  <text class="cls-3" transform="translate(24.46 136.78) rotate(-117.88)"><tspan x="0" y="0">t</tspan></text>
  <text class="cls-3" transform="translate(22.67 133.47) rotate(-114.55)"><tspan x="0" y="0">e</tspan></text>
  <text class="cls-3" transform="translate(20.24 128.08) rotate(-111.15)"><tspan x="0" y="0">r</tspan></text>
  <text class="cls-3" transform="translate(18.86 124.49) rotate(-108.94)"><tspan x="0" y="0"> </tspan></text>
  <text class="cls-3" transform="translate(17.99 122.23) rotate(-105.34)"><tspan x="0" y="0">D</tspan></text>
  <text class="cls-3" transform="translate(15.98 114.64) rotate(-101.27)"><tspan x="0" y="0">r</tspan></text>
  <text class="cls-3" transform="translate(15.23 110.83) rotate(-98.96)"><tspan x="0" y="0">i</tspan></text>
  <text class="cls-3" transform="translate(14.75 108.18) rotate(-95.75)"><tspan x="0" y="0">n</tspan></text>
  <text class="cls-3" transform="translate(14.11 101.67) rotate(-91.61)"><tspan x="0" y="0">k</tspan></text>
  <text class="cls-3" transform="translate(13.99 96.17) rotate(-88.91)"><tspan x="0" y="0"> </tspan></text>
  <text class="cls-3" transform="translate(13.98 93.72) rotate(-85.88)"><tspan x="0" y="0">B</tspan></text>
  <text class="cls-3" transform="translate(14.45 87.33) rotate(-81.61)"><tspan x="0" y="0">e</tspan></text>
  <text class="cls-3" transform="translate(15.3 81.52) rotate(-77.52)"><tspan x="0" y="0">e</tspan></text>
  <text class="cls-3" transform="translate(16.6 75.77) rotate(-74.12)"><tspan x="0" y="0">r</tspan></text>
  <g>
    <path class="cls-7" d="m112.98,72.62h-29.23c-1.73,0-3.37.39-4.84,1.08-.69.33-1.35.72-1.96,1.18-2.78,2.08-4.58,5.39-4.58,9.13v-.72s-18-.66-18,17.34-3.83,27,18,27v.62c0,6.29,5.1,11.38,11.38,11.38h29.23c6.29,0,11.38-5.1,11.38-11.38v-44.23c0-6.29-5.1-11.38-11.38-11.38Zm-41.88,49c0,.62-.47,1.15-1.09,1.22-8.47,1.02-9.96-7.58-10.1-8.59,0-.07-.01-.13-.01-.19l.2-8.36s0-.1,0-.15c-.99-14.93,6.4-16.56,9.67-16.88.72-.07,1.34.49,1.34,1.22v31.74Zm40.5,1.58c-.28,1.01-1.13,1.72-2.12,1.72h-23.62c-1.21,0-2.19-1.05-2.19-2.36v-9.59c0-1.3.98-2.36,2.19-2.36h23.38c1.03,0,1.92.77,2.14,1.85.34,1.67.75,4.26.71,6.87-.02,1.32-.17,2.64-.5,3.85Zm0-22c-.28,1.01-1.13,1.72-2.12,1.72h-23.62c-1.21,0-2.19-1.05-2.19-2.36v-9.59c0-1.3.98-2.36,2.19-2.36h23.38c1.03,0,1.92.77,2.14,1.85.34,1.67.75,4.26.71,6.87-.02,1.32-.17,2.64-.5,3.85Z"/>
    <path class="cls-5" d="m83.59,72.62h20.66c.94,0,1.74.65,1.92,1.57.4,2.02,1.65,5.16,5.55,4.31,1.22-.27,2.39.6,2.39,1.85v6.89c0,.26.05.52.15.76.72,1.7,6.85,5.62,9.75.13.19-.36.36-.73.36-1.13v-10.88c0-.37.1-.74.31-1.05.89-1.38,3.23-5.62-.31-7.81-1.31-.81-2.4-1.12-3.28-1.17-1.44-.07-2.63-1.03-3.04-2.42-.56-1.92-2.21-3.79-6.65-3.26-.73.09-1.46-.21-1.87-.82-1.08-1.64-3.72-4.48-8.25-2.56-.68.29-1.47.23-2.04-.24-1.58-1.31-5.1-3.26-8.71,1.25-.28.35-.64.61-1.07.72-2.31.59-9.98,3.27-7.79,12.37.21.87,1.01,1.49,1.91,1.49Z"/>
    <g>
      <text class="cls-1" transform="translate(86.21 136.26) scale(1.28 1)"><tspan x="0" y="0">BIL </tspan></text>
      <text class="cls-2" transform="translate(98.87 134.84) scale(1.39 1)"><tspan x="0" y="0">L</tspan></text>
      <text class="cls-1" transform="translate(102.33 136.42) scale(1.21 1)"><tspan x="0" y="0">Y</tspan></text>
    </g>
    <path class="cls-6" d="m86.5,70.17l-.07.21c-.04.11-.02.25.06.33.12.12.31.24.53,0,.08-.09.1-.23.06-.35l-.08-.21q-.27-.71-.51.01Z"/>
    <path class="cls-6" d="m102.9,69.96l-.07.21c-.04.11-.02.25.06.33.12.12.31.24.53,0,.08-.09.1-.23.06-.35l-.08-.21q-.27-.71-.51.01Z"/>
    <path class="cls-6" d="m101.9,58.96l-.07.21c-.04.11-.02.25.06.33.12.12.31.24.53,0,.08-.09.1-.23.06-.35l-.08-.21q-.27-.71-.51.01Z"/>
    <path class="cls-6" d="m117.9,85.96l-.07.21c-.04.11-.02.25.06.33.12.12.31.24.53,0,.08-.09.1-.23.06-.35l-.08-.21q-.27-.71-.51.01Z"/>
    <path class="cls-6" d="m114.9,82.96l-.07.21c-.04.11-.02.25.06.33.12.12.31.24.53,0,.08-.09.1-.23.06-.35l-.08-.21q-.27-.71-.51.01Z"/>
    <path class="cls-6" d="m92.22,58.26l-.07.21c-.04.11-.02.25.06.33.12.12.31.24.53,0,.08-.09.1-.23.06-.35l-.08-.21q-.27-.71-.51.01Z"/>
    <path class="cls-6" d="m115.22,62.26l-.07.21c-.04.11-.02.25.06.33.12.12.31.24.53,0,.08-.09.1-.23.06-.35l-.08-.21q-.27-.71-.51.01Z"/>
    <path class="cls-6" d="m124.22,72.26l-.07.21c-.04.11-.02.25.06.33.12.12.31.24.53,0,.08-.09.1-.23.06-.35l-.08-.21q-.27-.71-.51.01Z"/>
    <path class="cls-6" d="m107.22,75.26l-.07.21c-.04.11-.02.25.06.33.12.12.31.24.53,0,.08-.09.1-.23.06-.35l-.08-.21q-.27-.71-.51.01Z"/>
    <path class="cls-6" d="m83.22,65.26l-.07.21c-.04.11-.02.25.06.33.12.12.31.24.53,0,.08-.09.1-.23.06-.35l-.08-.21q-.27-.71-.51.01Z"/>
    <path class="cls-6" d="m109.22,63.26l-.07.21c-.04.11-.02.25.06.33.12.12.31.24.53,0,.08-.09.1-.23.06-.35l-.08-.21q-.27-.71-.51.01Z"/>
    <path class="cls-6" d="m97.22,64.26l-.07.21c-.04.11-.02.25.06.33.12.12.31.24.53,0,.08-.09.1-.23.06-.35l-.08-.21q-.27-.71-.51.01Z"/>
    <path class="cls-6" d="m117.22,76.26l-.07.21c-.04.11-.02.25.06.33.12.12.31.24.53,0,.08-.09.1-.23.06-.35l-.08-.21q-.27-.71-.51.01Z"/>
    <path class="cls-6" d="m118.22,68.26l-.07.21c-.04.11-.02.25.06.33.12.12.31.24.53,0,.08-.09.1-.23.06-.35l-.08-.21q-.27-.71-.51.01Z"/>
    <path class="cls-6" d="m107.22,69.26l-.07.21c-.04.11-.02.25.06.33.12.12.31.24.53,0,.08-.09.1-.23.06-.35l-.08-.21q-.27-.71-.51.01Z"/>
    <path class="cls-6" d="m94.22,71.26l-.07.21c-.04.11-.02.25.06.33.12.12.31.24.53,0,.08-.09.1-.23.06-.35l-.08-.21q-.27-.71-.51.01Z"/>
    <path class="cls-6" d="m112.22,73.26l-.07.21c-.04.11-.02.25.06.33.12.12.31.24.53,0,.08-.09.1-.23.06-.35l-.08-.21q-.27-.71-.51.01Z"/>
    <path class="cls-6" d="m121.65,87.7l-.07.21c-.04.11-.02.25.06.33.12.12.31.24.53,0,.08-.09.1-.23.06-.35l-.08-.21q-.27-.71-.51.01Z"/>
    <path class="cls-6" d="m89.65,63.7l-.07.21c-.04.11-.02.25.06.33.12.12.31.24.53,0,.08-.09.1-.23.06-.35l-.08-.21q-.27-.71-.51.01Z"/>
    <path class="cls-6" d="m121.9,80.68l-.07.21c-.04.11-.02.25.06.33.12.12.31.24.53,0,.08-.09.1-.23.06-.35l-.08-.21q-.27-.71-.51.01Z"/>
  </g>
</svg>