<?xml version="1.0" encoding="UTF-8"?>
<svg id="Layer_1" data-name="Layer 1" xmlns="http://www.w3.org/2000/svg" viewBox="0 0 193 193">
  <defs>
    <style>
      .cls-1 {
        fill: #6fccdd;
      }

      .cls-1, .cls-2 {
        stroke-width: 0px;
      }

      .cls-3 {
        fill: #fff;
        font-family: MyriadPro-Regular, 'Myriad Pro';
        font-size: 12px;
      }
    </style>
  </defs>
  <g>
    <circle class="cls-2" cx="96.5" cy="96.5" r="96"/>
    <path class="cls-2" d="m96.5,1c52.66,0,95.5,42.84,95.5,95.5s-42.84,95.5-95.5,95.5S1,149.16,1,96.5,43.84,1,96.5,1m0-1C43.2,0,0,43.2,0,96.5s43.2,96.5,96.5,96.5,96.5-43.2,96.5-96.5S149.8,0,96.5,0h0Z"/>
  </g>
  <text class="cls-3" transform="translate(45.98 31.18) rotate(-35.35)"><tspan x="0" y="0">C</tspan></text>
  <text class="cls-3" transform="translate(51.59 27.27) rotate(-32.04)"><tspan x="0" y="0">l</tspan></text>
  <text class="cls-3" transform="translate(53.88 25.77) rotate(-28.84)"><tspan x="0" y="0">o</tspan></text>
  <text class="cls-3" transform="translate(59.51 22.66) rotate(-24.35)"><tspan x="0" y="0">u</tspan></text>
  <text class="cls-3" transform="translate(65.39 19.99) rotate(-19.78)"><tspan x="0" y="0">d</tspan></text>
  <text class="cls-3" transform="translate(71.69 17.79) rotate(-16.59)"><tspan x="0" y="0"> </tspan></text>
  <text class="cls-3" transform="translate(74.01 17.04) rotate(-13.62)"><tspan x="0" y="0">9</tspan></text>
  <text class="cls-3" transform="translate(79.89 15.66) rotate(-10.67)"><tspan x="0" y="0"> </tspan></text>
  <text class="cls-3" transform="translate(82.33 15.2) rotate(-8.94)"><tspan x="0" y="0"> </tspan></text>
  <text class="cls-3" transform="translate(84.8 14.81) rotate(-7.2)"><tspan x="0" y="0"> </tspan></text>
  <text class="cls-3" transform="translate(87.25 14.5) rotate(-5.48)"><tspan x="0" y="0"> </tspan></text>
  <text class="cls-3" transform="translate(89.74 14.26) rotate(-3.76)"><tspan x="0" y="0"> </tspan></text>
  <text class="cls-3" transform="translate(92.21 14.1) rotate(-2.06)"><tspan x="0" y="0"> </tspan></text>
  <text class="cls-3" transform="translate(94.69 14.02) rotate(-.93)"><tspan x="0" y="0"> </tspan></text>
  <text class="cls-3" transform="translate(97.18 13.99) rotate(1.33)"><tspan x="0" y="0"> </tspan></text>
  <text class="cls-3" transform="translate(99.67 14.05) rotate(3.04)"><tspan x="0" y="0"> </tspan></text>
  <text class="cls-3" transform="translate(102.14 14.18) rotate(4.74)"><tspan x="0" y="0"> </tspan></text>
  <text class="cls-3" transform="translate(104.61 14.38) rotate(6.45)"><tspan x="0" y="0"> </tspan></text>
  <text class="cls-3" transform="translate(107.08 14.66) rotate(8.18)"><tspan x="0" y="0"> </tspan></text>
  <text class="cls-3" transform="translate(109.53 15.01) rotate(9.9)"><tspan x="0" y="0"> </tspan></text>
  <text class="cls-3" transform="translate(111.98 15.44) rotate(11.63)"><tspan x="0" y="0"> </tspan></text>
  <text class="cls-3" transform="translate(114.42 15.94) rotate(13.38)"><tspan x="0" y="0"> </tspan></text>
  <text class="cls-3" transform="translate(116.85 16.52) rotate(15.12)"><tspan x="0" y="0"> </tspan></text>
  <text class="cls-3" transform="translate(119.24 17.16) rotate(16.86)"><tspan x="0" y="0"> </tspan></text>
  <text class="cls-3" transform="translate(121.6 17.88) rotate(18.58)"><tspan x="0" y="0"> </tspan></text>
  <text class="cls-3" transform="translate(123.97 18.67) rotate(20.33)"><tspan x="0" y="0"> </tspan></text>
  <text class="cls-3" transform="translate(126.3 19.54) rotate(22.07)"><tspan x="0" y="0"> </tspan></text>
  <text class="cls-3" transform="translate(128.6 20.47) rotate(23.8)"><tspan x="0" y="0"> </tspan></text>
  <text class="cls-3" transform="translate(130.87 21.47) rotate(25.53)"><tspan x="0" y="0"> </tspan></text>
  <text class="cls-3" transform="translate(133.12 22.54) rotate(27.27)"><tspan x="0" y="0"> </tspan></text>
  <text class="cls-3" transform="translate(135.31 23.67) rotate(28.99)"><tspan x="0" y="0"> </tspan></text>
  <text class="cls-3" transform="translate(137.49 24.88) rotate(30.72)"><tspan x="0" y="0"> </tspan></text>
  <text class="cls-3" transform="translate(139.63 26.15) rotate(32.45)"><tspan x="0" y="0"> </tspan></text>
  <text class="cls-3" transform="translate(141.73 27.48) rotate(34.17)"><tspan x="0" y="0"> </tspan></text>
  <text class="cls-3" transform="translate(143.78 28.87) rotate(35.89)"><tspan x="0" y="0"> </tspan></text>
  <text class="cls-3" transform="translate(145.79 30.33) rotate(37.61)"><tspan x="0" y="0"> </tspan></text>
  <text class="cls-3" transform="translate(147.75 31.84) rotate(39.32)"><tspan x="0" y="0"> </tspan></text>
  <text class="cls-3" transform="translate(149.69 33.42) rotate(41.05)"><tspan x="0" y="0"> </tspan></text>
  <text class="cls-3" transform="translate(151.56 35.05) rotate(42.76)"><tspan x="0" y="0"> </tspan></text>
  <text class="cls-3" transform="translate(153.38 36.73) rotate(44.47)"><tspan x="0" y="0"> </tspan></text>
  <text class="cls-3" transform="translate(155.17 38.48) rotate(46.2)"><tspan x="0" y="0"> </tspan></text>
  <text class="cls-3" transform="translate(156.88 40.27) rotate(47.9)"><tspan x="0" y="0"> </tspan></text>
  <text class="cls-3" transform="translate(158.56 42.03) rotate(51.11)"><tspan x="0" y="0">C</tspan></text>
  <text class="cls-3" transform="translate(162.81 47.39) rotate(54.41)"><tspan x="0" y="0">l</tspan></text>
  <text class="cls-3" transform="translate(164.44 49.57) rotate(57.59)"><tspan x="0" y="0">o</tspan></text>
  <text class="cls-3" transform="translate(167.89 55) rotate(62.07)"><tspan x="0" y="0">u</tspan></text>
  <text class="cls-3" transform="translate(170.93 60.7) rotate(66.63)"><tspan x="0" y="0">d</tspan></text>
  <text class="cls-3" transform="translate(173.51 66.82) rotate(69.8)"><tspan x="0" y="0"> </tspan></text>
  <text class="cls-3" transform="translate(174.41 69.12) rotate(72.79)"><tspan x="0" y="0">9</tspan></text>
  <text class="cls-3" transform="translate(176.15 74.9) rotate(75.75)"><tspan x="0" y="0"> </tspan></text>
  <text class="cls-3" transform="translate(176.77 77.31) rotate(77.49)"><tspan x="0" y="0"> </tspan></text>
  <text class="cls-3" transform="translate(177.3 79.73) rotate(79.22)"><tspan x="0" y="0"> </tspan></text>
  <text class="cls-3" transform="translate(177.77 82.17) rotate(80.95)"><tspan x="0" y="0"> </tspan></text>
  <text class="cls-3" transform="translate(178.16 84.63) rotate(82.69)"><tspan x="0" y="0"> </tspan></text>
  <text class="cls-3" transform="translate(178.48 87.09) rotate(84.4)"><tspan x="0" y="0"> </tspan></text>
  <text class="cls-3" transform="translate(178.72 89.57) rotate(86.12)"><tspan x="0" y="0"> </tspan></text>
  <text class="cls-3" transform="translate(178.89 92.04) rotate(87.82)"><tspan x="0" y="0"> </tspan></text>
  <text class="cls-3" transform="translate(178.98 94.53) rotate(89.07)"><tspan x="0" y="0"> </tspan></text>
  <text class="cls-3" transform="translate(179.01 97.03) rotate(91.22)"><tspan x="0" y="0"> </tspan></text>
  <text class="cls-3" transform="translate(178.96 99.51) rotate(92.92)"><tspan x="0" y="0"> </tspan></text>
  <text class="cls-3" transform="translate(178.83 101.97) rotate(94.62)"><tspan x="0" y="0"> </tspan></text>
  <text class="cls-3" transform="translate(178.63 104.45) rotate(96.34)"><tspan x="0" y="0"> </tspan></text>
  <text class="cls-3" transform="translate(178.36 106.92) rotate(98.07)"><tspan x="0" y="0"> </tspan></text>
  <text class="cls-3" transform="translate(178.01 109.37) rotate(99.79)"><tspan x="0" y="0"> </tspan></text>
  <text class="cls-3" transform="translate(177.59 111.82) rotate(101.52)"><tspan x="0" y="0"> </tspan></text>
  <text class="cls-3" transform="translate(177.09 114.27) rotate(103.27)"><tspan x="0" y="0"> </tspan></text>
  <text class="cls-3" transform="translate(176.52 116.69) rotate(105.01)"><tspan x="0" y="0"> </tspan></text>
  <text class="cls-3" transform="translate(175.88 119.09) rotate(106.74)"><tspan x="0" y="0"> </tspan></text>
  <text class="cls-3" transform="translate(175.17 121.45) rotate(108.47)"><tspan x="0" y="0"> </tspan></text>
  <text class="cls-3" transform="translate(174.38 123.82) rotate(110.22)"><tspan x="0" y="0"> </tspan></text>
  <text class="cls-3" transform="translate(173.52 126.16) rotate(111.96)"><tspan x="0" y="0"> </tspan></text>
  <text class="cls-3" transform="translate(172.59 128.46) rotate(113.69)"><tspan x="0" y="0"> </tspan></text>
  <text class="cls-3" transform="translate(171.6 130.72) rotate(115.42)"><tspan x="0" y="0"> </tspan></text>
  <text class="cls-3" transform="translate(170.54 132.95) rotate(117.14)"><tspan x="0" y="0"> </tspan></text>
  <text class="cls-3" transform="translate(169.4 135.18) rotate(118.88)"><tspan x="0" y="0"> </tspan></text>
  <text class="cls-3" transform="translate(168.2 137.36) rotate(120.61)"><tspan x="0" y="0"> </tspan></text>
  <text class="cls-3" transform="translate(166.93 139.5) rotate(122.34)"><tspan x="0" y="0"> </tspan></text>
  <text class="cls-3" transform="translate(165.61 141.6) rotate(124.06)"><tspan x="0" y="0"> </tspan></text>
  <text class="cls-3" transform="translate(164.22 143.65) rotate(125.78)"><tspan x="0" y="0"> </tspan></text>
  <text class="cls-3" transform="translate(162.77 145.67) rotate(127.5)"><tspan x="0" y="0"> </tspan></text>
  <text class="cls-3" transform="translate(161.26 147.63) rotate(129.21)"><tspan x="0" y="0"> </tspan></text>
  <text class="cls-3" transform="translate(159.69 149.55) rotate(130.92)"><tspan x="0" y="0"> </tspan></text>
  <text class="cls-3" transform="translate(158.05 151.45) rotate(132.65)"><tspan x="0" y="0"> </tspan></text>
  <text class="cls-3" transform="translate(156.38 153.27) rotate(134.36)"><tspan x="0" y="0"> </tspan></text>
  <text class="cls-3" transform="translate(154.72 155.05) rotate(137.56)"><tspan x="0" y="0">C</tspan></text>
  <text class="cls-3" transform="translate(149.65 159.62) rotate(140.85)"><tspan x="0" y="0">l</tspan></text>
  <text class="cls-3" transform="translate(147.55 161.39) rotate(144.05)"><tspan x="0" y="0">o</tspan></text>
  <text class="cls-3" transform="translate(142.34 165.18) rotate(148.52)"><tspan x="0" y="0">u</tspan></text>
  <text class="cls-3" transform="translate(136.85 168.55) rotate(153.05)"><tspan x="0" y="0">d</tspan></text>
  <text class="cls-3" transform="translate(130.9 171.52) rotate(156.22)"><tspan x="0" y="0"> </tspan></text>
  <text class="cls-3" transform="translate(128.69 172.55) rotate(159.18)"><tspan x="0" y="0">9</tspan></text>
  <text class="cls-3" transform="translate(123 174.66) rotate(162.17)"><tspan x="0" y="0"> </tspan></text>
  <text class="cls-3" transform="translate(120.64 175.42) rotate(163.9)"><tspan x="0" y="0"> </tspan></text>
  <text class="cls-3" transform="translate(118.26 176.11) rotate(165.64)"><tspan x="0" y="0"> </tspan></text>
  <text class="cls-3" transform="translate(115.84 176.73) rotate(167.38)"><tspan x="0" y="0"> </tspan></text>
  <text class="cls-3" transform="translate(113.43 177.27) rotate(169.11)"><tspan x="0" y="0"> </tspan></text>
  <text class="cls-3" transform="translate(110.99 177.74) rotate(170.84)"><tspan x="0" y="0"> </tspan></text>
  <text class="cls-3" transform="translate(108.53 178.14) rotate(172.57)"><tspan x="0" y="0"> </tspan></text>
  <text class="cls-3" transform="translate(106.07 178.46) rotate(174.29)"><tspan x="0" y="0"> </tspan></text>
  <text class="cls-3" transform="translate(103.59 178.71) rotate(176.01)"><tspan x="0" y="0"> </tspan></text>
  <text class="cls-3" transform="translate(101.13 178.88) rotate(177.71)"><tspan x="0" y="0"> </tspan></text>
  <text class="cls-3" transform="translate(98.64 178.97) rotate(179.07)"><tspan x="0" y="0"> </tspan></text>
  <text class="cls-3" transform="translate(96.14 179.01) rotate(-178.89)"><tspan x="0" y="0"> </tspan></text>
  <text class="cls-3" transform="translate(93.66 178.96) rotate(-177.19)"><tspan x="0" y="0"> </tspan></text>
  <text class="cls-3" transform="translate(91.19 178.84) rotate(-175.49)"><tspan x="0" y="0"> </tspan></text>
  <text class="cls-3" transform="translate(88.71 178.65) rotate(-173.77)"><tspan x="0" y="0"> </tspan></text>
  <text class="cls-3" transform="translate(86.25 178.38) rotate(-172.06)"><tspan x="0" y="0"> </tspan></text>
  <text class="cls-3" transform="translate(83.79 178.04) rotate(-170.32)"><tspan x="0" y="0"> </tspan></text>
  <text class="cls-3" transform="translate(81.34 177.62) rotate(-168.59)"><tspan x="0" y="0"> </tspan></text>
  <text class="cls-3" transform="translate(78.89 177.13) rotate(-166.85)"><tspan x="0" y="0"> </tspan></text>
  <text class="cls-3" transform="translate(76.46 176.56) rotate(-165.1)"><tspan x="0" y="0"> </tspan></text>
  <text class="cls-3" transform="translate(74.07 175.92) rotate(-163.37)"><tspan x="0" y="0"> </tspan></text>
  <text class="cls-3" transform="translate(71.7 175.22) rotate(-161.64)"><tspan x="0" y="0"> </tspan></text>
  <text class="cls-3" transform="translate(69.33 174.43) rotate(-159.89)"><tspan x="0" y="0"> </tspan></text>
  <text class="cls-3" transform="translate(67.02 173.59) rotate(-158.17)"><tspan x="0" y="0"> </tspan></text>
  <text class="cls-3" transform="translate(64.69 172.65) rotate(-156.42)"><tspan x="0" y="0"> </tspan></text>
  <text class="cls-3" transform="translate(62.42 171.66) rotate(-154.69)"><tspan x="0" y="0"> </tspan></text>
  <text class="cls-3" transform="translate(60.19 170.61) rotate(-152.97)"><tspan x="0" y="0"> </tspan></text>
  <text class="cls-3" transform="translate(57.96 169.48) rotate(-151.23)"><tspan x="0" y="0"> </tspan></text>
  <text class="cls-3" transform="translate(55.78 168.28) rotate(-149.49)"><tspan x="0" y="0"> </tspan></text>
  <text class="cls-3" transform="translate(53.66 167.03) rotate(-147.79)"><tspan x="0" y="0"> </tspan></text>
  <text class="cls-3" transform="translate(51.56 165.71) rotate(-146.07)"><tspan x="0" y="0"> </tspan></text>
  <text class="cls-3" transform="translate(49.5 164.32) rotate(-144.35)"><tspan x="0" y="0"> </tspan></text>
  <text class="cls-3" transform="translate(47.46 162.86) rotate(-142.61)"><tspan x="0" y="0"> </tspan></text>
  <text class="cls-3" transform="translate(45.49 161.36) rotate(-140.9)"><tspan x="0" y="0"> </tspan></text>
  <text class="cls-3" transform="translate(43.56 159.87) rotate(-137.69)"><tspan x="0" y="0">C</tspan></text>
  <text class="cls-3" transform="translate(38.55 155.23) rotate(-134.4)"><tspan x="0" y="0">l</tspan></text>
  <text class="cls-3" transform="translate(36.59 153.32) rotate(-131.22)"><tspan x="0" y="0">o</tspan></text>
  <text class="cls-3" transform="translate(32.35 148.48) rotate(-126.77)"><tspan x="0" y="0">u</tspan></text>
  <text class="cls-3" transform="translate(28.47 143.31) rotate(-122.23)"><tspan x="0" y="0">d</tspan></text>
  <text class="cls-3" transform="translate(24.97 137.65) rotate(-119.08)"><tspan x="0" y="0"> </tspan></text>
  <text class="cls-3" transform="translate(23.74 135.54) rotate(-116.12)"><tspan x="0" y="0">9</tspan></text>
  <text class="cls-3" transform="translate(21.12 130.1) rotate(-113.17)"><tspan x="0" y="0"> </tspan></text>
  <text class="cls-3" transform="translate(20.14 127.82) rotate(-111.43)"><tspan x="0" y="0"> </tspan></text>
  <text class="cls-3" transform="translate(19.23 125.5) rotate(-109.69)"><tspan x="0" y="0"> </tspan></text>
  <text class="cls-3" transform="translate(18.39 123.15) rotate(-107.94)"><tspan x="0" y="0"> </tspan></text>
  <text class="cls-3" transform="translate(17.63 120.8) rotate(-106.21)"><tspan x="0" y="0"> </tspan></text>
  <text class="cls-3" transform="translate(16.93 118.41) rotate(-104.47)"><tspan x="0" y="0"> </tspan></text>
  <text class="cls-3" transform="translate(16.31 116) rotate(-102.73)"><tspan x="0" y="0"> </tspan></text>
  <text class="cls-3" transform="translate(15.76 113.59) rotate(-101)"><tspan x="0" y="0"> </tspan></text>
  <text class="cls-3" transform="translate(15.29 111.15) rotate(-99.27)"><tspan x="0" y="0"> </tspan></text>
  <text class="cls-3" transform="translate(14.88 108.69) rotate(-97.54)"><tspan x="0" y="0"> </tspan></text>
  <text class="cls-3" transform="translate(14.56 106.23) rotate(-95.82)"><tspan x="0" y="0"> </tspan></text>
  <text class="cls-3" transform="translate(14.31 103.76) rotate(-94.1)"><tspan x="0" y="0"> </tspan></text>
  <text class="cls-3" transform="translate(14.13 101.29) rotate(-92.4)"><tspan x="0" y="0"> </tspan></text>
  <text class="cls-3" transform="translate(14.03 98.8) rotate(-90.93)"><tspan x="0" y="0"> </tspan></text>
  <text class="cls-3" transform="translate(13.99 96.31) rotate(-89)"><tspan x="0" y="0"> </tspan></text>
  <text class="cls-3" transform="translate(14.03 93.82) rotate(-87.3)"><tspan x="0" y="0"> </tspan></text>
  <text class="cls-3" transform="translate(14.15 91.35) rotate(-85.6)"><tspan x="0" y="0"> </tspan></text>
  <text class="cls-3" transform="translate(14.34 88.88) rotate(-83.89)"><tspan x="0" y="0"> </tspan></text>
  <text class="cls-3" transform="translate(14.6 86.42) rotate(-82.17)"><tspan x="0" y="0"> </tspan></text>
  <text class="cls-3" transform="translate(14.94 83.94) rotate(-80.43)"><tspan x="0" y="0"> </tspan></text>
  <text class="cls-3" transform="translate(15.35 81.5) rotate(-78.7)"><tspan x="0" y="0"> </tspan></text>
  <text class="cls-3" transform="translate(15.84 79.05) rotate(-76.96)"><tspan x="0" y="0"> </tspan></text>
  <path class="cls-1" d="m115,74c-3-12-9-13-9-13-7-7-14-3-14-3-7,0-10,6-10,6-5,3-5,9.43-5,9.43,0,0-3,4.57,0,11.57s7.24,8.63,7.24,8.63c2.24,3.63,6.76,2.37,6.76,2.37,5,3,8.04-1.96,8.04-1.96,3.04,1.04,5.37-3.43,5.37-3.43,0,0-2.41,13.39-4.41,14.39s-6,7-6,7l-5,4-7.05,4.83s-6.95,2.17.78,1.78,13.16-5.65,13.16-5.65c2.89-.04,7.11-4.96,7.11-4.96,4-1,6-7,6-7,4-1,5-10,5-10,0,0,4-9,1-21Zm-10.06,7.71s-.8,4.26-4.37,4.78c0,0-1.63,2.49-6.1,1.5,0,0-3.13,1.41-6.8-2.79,0,0-3.29-1.12-3.48-6.16,0,0-1.11-3.86.35-5.45,0,0,.31-3.43,3.39-5.01,0,0,2.35-2.58,6.71-2.58,0,0,2.38-.85,3.87.57,0,0,1.4-.68,1.94.87,0,0,2.39-.68,1.97,1.43,0,0,1.25-.23.92.94,0,0,3.18,1.57,2.42,4.87,0,0,2.13,2.71-.81,7.01Z"/>
</svg>